<?xml version="1.0" standalone="no"?>
<!DOCTYPE svg PUBLIC "-//W3C//DTD SVG 20010904//EN"
 "http://www.w3.org/TR/2001/REC-SVG-20010904/DTD/svg10.dtd">
<svg version="1.0" xmlns="http://www.w3.org/2000/svg"
 width="300.000000pt" height="300.000000pt" viewBox="0 0 300.000000 300.000000"
 preserveAspectRatio="xMidYMid meet">
<metadata>
Created by potrace 1.14, written by Peter Selinger 2001-2017
</metadata>
<g transform="translate(0.000000,300.000000) scale(0.100000,-0.100000)"
fill="#000000" stroke="none">
<path d="M1035 2908 c-64 -22 -142 -93 -235 -211 -67 -86 -147 -139 -290 -193
-132 -49 -206 -104 -241 -179 -23 -50 -32 -105 -44 -256 -10 -130 -28 -190
-86 -279 -21 -33 -39 -65 -39 -70 0 -6 -4 -10 -9 -10 -4 0 -23 -33 -42 -72
-29 -62 -34 -84 -34 -143 0 -79 21 -133 99 -258 86 -138 101 -182 111 -337 4
-47 8 -94 10 -105 32 -196 67 -232 333 -335 118 -46 154 -74 247 -185 88 -105
143 -155 201 -182 50 -23 65 -25 133 -20 42 3 114 15 161 28 119 32 263 32
380 -1 59 -16 113 -24 175 -24 81 -1 95 2 135 26 57 34 89 64 170 158 92 106
126 136 200 173 35 18 67 32 70 33 3 0 19 6 35 13 231 91 276 150 290 385 12
185 26 228 128 390 66 106 88 158 94 222 7 72 -15 131 -94 256 -110 174 -118
197 -127 380 -13 248 -64 310 -341 418 -107 42 -152 77 -260 205 -161 190
-236 215 -460 154 -147 -41 -250 -42 -390 -4 -110 29 -233 39 -280 23z m285
-44 c142 -37 229 -36 380 4 155 41 236 40 306 -5 27 -18 74 -60 104 -95 165
-187 190 -209 317 -259 262 -104 301 -152 318 -384 15 -205 27 -241 131 -401
130 -199 127 -259 -27 -509 -79 -127 -90 -166 -104 -361 -8 -113 -12 -132 -43
-194 -34 -68 -95 -111 -237 -165 -146 -56 -202 -94 -294 -205 -70 -83 -148
-158 -186 -178 -49 -26 -164 -25 -280 4 -157 39 -229 41 -365 9 -63 -14 -150
-29 -192 -32 -126 -9 -163 15 -353 232 -74 85 -114 110 -275 175 -222 89 -257
139 -275 395 -11 168 -18 188 -117 354 -37 63 -75 137 -84 164 -32 96 -6 185
101 352 72 112 88 164 100 320 20 268 53 315 282 406 94 37 179 82 213 112 14
12 54 58 90 101 91 111 128 145 185 173 43 21 60 24 125 19 41 -2 122 -17 180
-32z"/>
<path d="M1943 2252 l-63 -65 0 -557 c0 -492 -2 -562 -17 -606 -59 -177 -237
-280 -418 -242 -144 30 -261 157 -280 304 -6 46 -13 57 -71 115 l-64 63 0 -99
c0 -160 41 -272 135 -369 95 -100 198 -147 331 -152 153 -6 263 36 370 141 75
73 121 159 139 260 5 29 8 1266 3 1270 -2 1 -31 -27 -65 -63z"/>
<path d="M1728 1688 c-3 -697 1 -656 -76 -716 -72 -57 -158 -64 -234 -19 -86
50 -103 95 -107 281 -1 28 -2 28 -67 -35 l-65 -64 5 -52 c11 -107 86 -207 194
-260 49 -24 69 -28 142 -28 70 1 95 5 141 27 66 30 138 100 171 166 l23 47 3
578 3 579 -60 59 c-32 32 -61 59 -65 59 -3 0 -7 -280 -8 -622z"/>
</g>
</svg>
